<svg width="49" height="41" viewBox="0 0 49 41" fill="none" xmlns="http://www.w3.org/2000/svg">
<path d="M16.7265 18.5884H10.2206C9.44458 18.5884 8.78885 18.3177 8.24446 17.7763C7.70306 17.2349 7.43234 16.5762 7.43234 15.8002V14.8708C7.43234 12.8194 8.15723 11.0659 9.60998 9.61314C11.0627 8.16038 12.8133 7.4355 14.8676 7.4355H16.7265C17.2288 7.4355 17.6649 7.25203 18.0319 6.88508C18.3988 6.51812 18.5823 6.08197 18.5823 5.5797L18.5853 1.85905C18.5853 1.35675 18.4018 0.920579 18.0349 0.550671C17.6679 0.18372 17.2318 0.000244141 16.7295 0.000244141H14.8706C12.8554 0.000244141 10.9364 0.391258 9.10463 1.17627C7.27588 1.96128 5.69076 3.02003 4.35527 4.35552C3.01979 5.69101 1.95803 7.27312 1.17602 9.10488C0.391006 10.9336 0 12.8556 0 14.8709V35.3182C0 36.8672 0.541403 38.1847 1.62724 39.2675C2.71308 40.3502 4.02749 40.8947 5.57649 40.8947H16.7292C18.2782 40.8947 19.5957 40.3533 20.6784 39.2675C21.7612 38.1816 22.3057 36.8672 22.3057 35.3182L22.3027 24.1655C22.3027 22.6165 21.7613 21.2991 20.6754 20.2163C19.5926 19.1304 18.2752 18.589 16.7262 18.589L16.7265 18.5884Z" fill="#DA3559"/>
<path d="M46.6997 20.2154C45.617 19.1326 44.2995 18.5882 42.7505 18.5882H36.2446C35.4716 18.5882 34.8129 18.3175 34.2715 17.7761C33.7301 17.2346 33.4594 16.5759 33.4594 15.7999V14.8705C33.4594 12.8192 34.1842 11.0657 35.637 9.6129C37.0897 8.16014 38.8403 7.43526 40.8946 7.43526H42.7535C43.2558 7.43526 43.692 7.25178 44.0589 6.88483C44.4258 6.51788 44.6123 6.08172 44.6123 5.57945L44.6093 1.85881C44.6093 1.35651 44.4258 0.920335 44.0559 0.550427C43.6889 0.183476 43.2527 0 42.7505 0H40.8916C38.8764 0 36.9544 0.391014 35.1256 1.17602C33.2969 1.96104 31.7148 3.01979 30.3763 4.35527C29.0408 5.69076 27.979 7.27288 27.197 9.10463C26.412 10.9334 26.021 12.8554 26.021 14.8706V35.318C26.021 36.867 26.5624 38.1845 27.6482 39.2672C28.731 40.35 30.0485 40.8945 31.5975 40.8945H42.7502C44.2992 40.8945 45.6166 40.3531 46.6994 39.2672C47.7853 38.1814 48.3267 36.867 48.3267 35.318V24.1653C48.3267 22.6163 47.7853 21.2988 46.6994 20.216L46.6997 20.2154Z" fill="#DA3559"/>
</svg>
